<?xml version="1.0" encoding="utf-8"?>
<!-- Generator: Adobe Illustrator 21.0.0, SVG Export Plug-In . SVG Version: 6.00 Build 0)  -->
<svg version="1.1" id="Layer_1" xmlns="http://www.w3.org/2000/svg" xmlns:xlink="http://www.w3.org/1999/xlink" x="0px" y="0px"
	 viewBox="0 0 1200 1200" style="enable-background:new 0 0 1200 1200;" xml:space="preserve">
<style type="text/css">
	.st0{fill:#DE2627;}
</style>
<g>
	<path class="st0" d="M636.3,564.5c0.5-5.1-0.6-12.8-3.4-23c-3-8.4-8.1-15-15.3-19.7c-7.2-4.7-16.2-7.6-27.2-8.6h-63.3h-25.3h-9.4
		h-8.4H448l-29.6,57.5l-29.8-57.5h-44.3V640l-41.8-126.8h-64.5h-3.1h-37.3h-2.8h-20.2h-37.4c-10.7,0-20.8,1.4-30.2,4.2
		c-9.5,2.8-17.8,7-25.1,12.6c-7.3,5.7-13,12.7-17.1,21.3c-4.1,8.5-6.2,18.2-6.2,29.1c0,15.5,3.4,28.5,10.3,39.2
		c6.9,10.7,16.3,18.7,28.3,24c11.9,5.3,25.3,8,40.1,8H190h7.5h41.3l8.6-24.9h40.5l8.6,24.9h47.7h3.8h40.6V594l28.5,57.5h2.5L448,594
		v57.5h44.3v-97.1h9.4v97.1H551v-45.7h42.6c11.3-1.7,20.4-5.5,27.2-11.4c6.8-5.9,10.9-11,12.5-15.5
		C634.8,574.4,635.8,569.6,636.3,564.5z M154.9,610.3c-8.7,0-15.2-0.2-19.6-0.7c-4.4-0.4-8.7-1.2-12.8-2.4c-4.2-1.1-7.7-3.5-10.6-7
		c-2.9-3.5-4.5-9.4-4.8-17.5c0.4-8.4,2-14.3,4.8-17.6c2.8-3.3,5.9-5.7,9.5-7c3.6-1.3,7.7-2.3,12.3-2.9c4.6-0.6,11.7-0.9,21.2-0.9
		h42.6v0h23.9l-23.9,73.8v-17.9H154.9z M249.2,598.6l19.5-54.8l18,54.8H249.2z M591.3,571c-2.1,1.4-4.1,2.1-5.9,2.1H551v-25.5h34.2
		c1.5,0,3.4,0.8,5.6,2.5c2.2,1.7,3.5,5.2,3.8,10.5C594.6,566.2,593.4,569.7,591.3,571z"/>
	<path class="st0" d="M771.9,643.3L729,513.2h-67.6l-44.8,138.3h48.9l8.6-24.9h40.5l8.6,24.9h48.8h2.7h41.6V513.2h-44.3V643.3z
		 M679.2,598.6l16.2-54.8l14.6,54.8H679.2z"/>
	<path class="st0" d="M900.7,513.2c-10.7,0-20.8,1.4-30.2,4.2c-9.5,2.8-17.8,7-25.1,12.6c-7.3,5.7-13,12.7-17.1,21.3
		c-4.1,8.5-6.2,18.2-6.2,29.1c0,15.5,3.4,28.5,10.3,39.2c6.9,10.7,16.3,18.7,28.3,24c11.9,5.3,25.3,8,40.1,8h60.4v-69.2h-42.6v28
		c-8.7,0-15.2-0.2-19.6-0.7c-4.4-0.4-8.7-1.2-12.8-2.4c-4.2-1.1-7.7-3.5-10.6-7c-2.9-3.5-4.5-9.4-4.8-17.5c0.4-8.4,2-14.3,4.8-17.6
		c2.8-3.3,5.9-5.7,9.5-7c3.6-1.3,7.7-2.3,12.3-2.9c4.6-0.6,11.7-0.9,21.2-0.9h42.6v-41.2h-23H900.7z"/>
	<polygon class="st0" points="1135.5,513.2 1097.1,513.2 1092.3,513.2 1052.7,513.2 1052.7,564.9 1012.2,513.2 967.8,513.2 
		967.8,651.5 1012.2,651.5 1012.2,599.7 1052.7,651.5 1097.1,651.5 1097.1,554.3 1135.5,554.3 	"/>
</g>
<g>
	<path class="st0" d="M825.6,743.9c-1.9-1.7-4.3-3-7.2-4c-2.8-1-6.1-1.5-9.8-1.5h-18.1h-9.2h-21.9l0,0.1c-2-0.3-4-0.4-6.2-0.4
		c-4.2,0-7.9,0.5-11.2,1.6c-3.3,1-6.1,2.6-8.3,4.6c-2.3,2-4,4.5-5.2,7.4c-1.2,2.9-1.8,6.4-1.8,10.2c0,5.1,1,9.4,3.1,13
		c2.1,3.5,5.1,6.2,9.1,8c4,1.8,8.8,2.7,14.3,2.7c5.6,0,10.4-0.9,14.4-2.7s7.1-4.5,9.2-8.1c2.1-3.6,3.2-7.9,3.2-13
		c0-3.5-0.5-6.6-1.5-9.4h2.9v32.3h26.6c4.2,0.1,7.8-0.3,10.6-1.3c2.8-0.9,5.2-2.3,7.1-4c1.9-1.7,3.5-4,4.7-7c1.2-3,1.9-6.5,2.1-10.8
		c0-4.6-0.6-8.3-1.9-11.1C829.2,747.9,827.6,745.6,825.6,743.9z M762.8,767.4c-0.4,1.5-1.3,2.8-2.8,4c-1.5,1.2-3.8,1.7-6.8,1.7
		c-3.9,0-6.6-1.1-7.9-3.3c-1.3-2.2-2-4.8-2-7.8c0-7.4,3.3-11.1,9.9-11.1c4.2,0,6.9,1.1,8.2,3.3c1.3,2.2,2,4.8,2.2,7.8
		C763.4,764.1,763.2,765.9,762.8,767.4z M813.4,768.8c-0.8,1.3-1.8,2.4-3,3.2c-1.2,0.8-2.8,1.3-4.8,1.3h-8.8V750h8.8
		c2,0,3.7,0.4,4.9,1.3c1.3,0.8,2.3,2,3.1,3.5c0.8,1.5,1.2,3.8,1.3,6.9C814.7,765.1,814.2,767.4,813.4,768.8z"/>
	<path class="st0" d="M1183.2,425.8H10.8H4.6H-3v312.6v13.8h13.8h661.5v0h9.6v32.5h16.8v-15.3h14.5c3.9-0.6,6.9-1.9,9.2-3.8
		c2.3-2,3.7-3.7,4.2-5.2c0.5-1.5,0.9-3.1,1-4.8c0.2-1.7-0.2-4.3-1.2-7.7c-1-2.8-2.8-5-5.2-6.6c-2.4-1.6-5.5-2.5-9.2-2.9h-35.8v0
		H10.8V439.6h1172.4v298.8H963.4h-3.4h-21.9c-5.9,0-9.4,2.9-10.5,8.6c-1.1,5.7,2.1,12,9.5,18.9c4.5,3.6,3.7,5.2-2.3,5.1H925v4.1
		l-12.3-36.7h-12.2h-10.8H879h-7.8h-1.7h-11c-3.6,0-7.1,0.5-10.3,1.4c-3.2,0.9-6.1,2.3-8.6,4.2c-2.5,1.9-4.4,4.3-5.8,7.1
		c-1.4,2.9-2.1,6.1-2.1,9.7c0,5.2,1.2,9.6,3.5,13.1c2.3,3.6,5.5,6.3,9.6,8c4.1,1.8,8.6,2.7,13.6,2.7h16h4.5h12.1l2.9-8.3h13.8
		l2.9,8.3H925h3.2h21.4c6.7-1.1,10.1-4.5,10.2-10.3c0.1-5.7-3.3-11.6-10.2-17.7c-3.9-3.2-3.1-4.7,2.4-4.6h7.9h3.4h11.3v32.5h15.1
		v-32.5H1197v0v-13.8V439.6v-13.8H1183.2z M698.7,750h11.7c0.5,0,1.2,0.3,1.9,0.9c0.8,0.6,1.2,1.7,1.3,3.5c0,1.9-0.4,3-1.2,3.5
		c-0.7,0.5-1.4,0.7-2,0.7h-11.7V750z M879,771.2V771h-14.5c-3,0-5.2-0.1-6.7-0.2c-1.5-0.1-3-0.4-4.4-0.8c-1.4-0.4-2.6-1.2-3.6-2.3
		c-1-1.2-1.5-3.1-1.6-5.9c0.1-2.8,0.7-4.8,1.6-5.9c0.9-1.1,2-1.9,3.2-2.3c1.2-0.4,2.6-0.8,4.2-1c1.6-0.2,4-0.3,7.2-0.3H879v0h6.2
		L879,771.2z M894.7,767.1l6.6-18.4l6.1,18.4H894.7z"/>
</g>
</svg>
