<?xml version="1.0" encoding="utf-8"?>
<!-- Generator: Adobe Illustrator 21.0.0, SVG Export Plug-In . SVG Version: 6.00 Build 0)  -->
<svg version="1.1" id="Layer_1" xmlns="http://www.w3.org/2000/svg" xmlns:xlink="http://www.w3.org/1999/xlink" x="0px" y="0px"
	 viewBox="0 0 1200 1200" style="enable-background:new 0 0 1200 1200;" xml:space="preserve">
<style type="text/css">
	.st0{fill:none;}
	.st1{fill:#EB2329;}
</style>
<g>
	<path class="st0" d="M1004.2,425.5c8.1,0,13.8-6.6,13.6-15.8c-0.2-13.7-13.2-27.6-25.6-27.4c-8.5,0.1-14.1,6.4-13.8,15.5
		C978.9,411.1,992.3,425.5,1004.2,425.5z"/>
	<path class="st0" d="M206.3,342L91,458.1l115.3,115.3l116.3-115.3L206.3,342z M207,479.9c-12.5-0.1-22.9-10.5-23.1-23
		c-0.2-12.9,10.4-23.4,23.5-23.3c12.9,0.1,22.6,9.9,22.7,22.8C230.2,469.7,220,480,207,479.9z"/>
	<path class="st0" d="M930.7,471.9c7.2,0.9,11.9-2.7,13.9-9.5c3.6-12.6-9.8-29.7-22.9-29.6c-7.5,0.1-11.2,4.5-12.3,11.4
		C907.7,455.7,919,470.5,930.7,471.9z"/>
	<path class="st0" d="M967.2,449.5c8.2,0.1,13.2-5.4,13.1-14.5c0-13.2-12.8-27.1-24.5-26.8c-7.4,0.2-12.8,6.1-13,14.2
		C942.5,435.1,955.3,449.4,967.2,449.5z"/>
	<path class="st0" d="M1015,325.9c9.3,6.6,30.8,6.5,39.8-0.2c5.7-4.3,5.8-9.7-0.7-12.8c-5.9-2.9-12.4-4.1-19.5-4.1
		c-7,0-13.5,1.3-19.4,4.3C1008.8,316.3,1009.1,321.7,1015,325.9z"/>
	<path class="st0" d="M1119.9,462.7c14.8,0.4,28.6-18.7,23.5-31.4c-2.9-7.3-8.7-9.3-15.9-7.3c-10.1,2.8-18.9,14.6-18.6,25
		C1109.2,456.8,1112.7,462,1119.9,462.7z"/>
	<path class="st0" d="M1084.5,434.6c10.5-5,15.9-13.9,16.9-24.5c0.4-14.1-10-20.6-21.6-14.2c-9.8,5.4-15.2,14.1-15.6,25.3
		C1063.7,433.5,1073.4,439.9,1084.5,434.6z"/>
	
		<rect x="752.2" y="729.8" transform="matrix(0.7071 -0.7071 0.7071 0.7071 -312.6443 786.4433)" class="st0" width="81.6" height="81.6"/>
	<path class="st1" d="M1039.9,397.3c0,20.6,0.1,103.5,0.1,125c0,10.6,2.1,11.9,11.4,7.1c35.3-18,70.6-36.1,105.9-54.1
		c7.8-4,11.4-9.8,11.3-18.7c-0.2-37.1,0-74.2-0.1-111.3c0-10.9-2.3-12.5-12.2-8.5c-34.9,14.1-69.8,28.4-104.7,42.5
		C1043.4,382.7,1039.8,388.2,1039.9,397.3z M1127.6,424c7.2-2,13-0.1,15.9,7.3c5,12.7-8.7,31.8-23.5,31.4c-7.2-0.7-10.8-5.9-11-13.7
		C1108.7,438.6,1117.5,426.8,1127.6,424z M1064.2,421.2c0.4-11.2,5.8-19.9,15.6-25.3c11.6-6.4,22,0.1,21.6,14.2
		c-1,10.6-6.4,19.5-16.9,24.5C1073.4,439.9,1063.7,433.5,1064.2,421.2z"/>
	<path class="st1" d="M911.6,475.4c35.3,17.9,70.6,36.1,105.9,54c9.3,4.7,11.1,3.5,11.2-7.4c0.1-20.8-0.2-104.1,0.1-125
		c0.2-9.1-3.5-14.6-11.8-17.9c-34.7-13.9-69.2-28-103.9-42c-10.7-4.3-12.9-2.9-12.9,8.3c-0.1,37.1,0.1,74.2-0.1,111.3
		C900.1,465.7,903.8,471.5,911.6,475.4z M992.2,382.3c12.4-0.1,25.3,13.8,25.6,27.4c0.2,9.2-5.5,15.8-13.6,15.8
		c-11.9,0-25.3-14.4-25.7-27.8C978.2,388.7,983.8,382.3,992.2,382.3z M955.8,408.2c11.8-0.3,24.5,13.6,24.5,26.8
		c0,9.1-4.9,14.6-13.1,14.5c-11.8-0.1-24.7-14.3-24.4-27.1C943,414.3,948.4,408.4,955.8,408.2z M909.4,444.2
		c1-6.9,4.8-11.2,12.3-11.4c13.1-0.1,26.4,17,22.9,29.6c-1.9,6.8-6.7,10.4-13.9,9.5C919,470.5,907.7,455.7,909.4,444.2z"/>
	<path class="st1" d="M910.5,324.1c21,8.4,81.1,31.5,112,42.4c6.9,2.4,16.2,2.1,23.2-0.3c29.2-10.2,87.6-33.7,108.2-42
		c2.6-1.1,2.5-4.7-0.2-5.6c-20.6-7.1-77.8-26.8-105.7-36.2c-10-3.4-19.3-3.2-29.3,0.1c-29.2,9.8-87.3,28.9-108.1,36.1
		C908,319.4,907.9,323,910.5,324.1z M1015.2,313c5.9-3,12.3-4.2,19.4-4.3c7.1,0,13.6,1.2,19.5,4.1c6.5,3.1,6.4,8.6,0.7,12.8
		c-9,6.7-30.6,6.8-39.8,0.2C1009.1,321.7,1008.8,316.3,1015.2,313z"/>
	<path class="st1" d="M207.4,433.6c-13.1-0.1-23.7,10.4-23.5,23.3c0.2,12.4,10.6,22.8,23.1,23c13,0.2,23.3-10.2,23.2-23.5
		C230.1,443.4,220.4,433.7,207.4,433.6z"/>
	<path class="st1" d="M410.8,461.3v-6.5L206.3,249.6c0,0-204.7,207.4-206.3,208.4c70.7,70.7,136.3,135.8,206.3,205.8
		C267.5,602.6,389.3,482.5,410.8,461.3z M91,458.1L206.3,342l116.3,116.1L206.3,573.4L91,458.1z"/>
	<path class="st1" d="M410.8,461.3v112.9c0,8.3-2.8,15.4-8.3,21.2c-5.8,5.5-12.9,8.3-21.2,8.3h117.9c-8.3,0-15.4-2.8-21.2-8.3
		c-5.5-5.8-8.3-12.9-8.3-21.2V426.9l88.4,176.8H617V489.9l-2.6-2.6v-58.9l2.6-2.6v-87.2c0-8,2.8-14.9,8.3-20.7
		c5.8-5.8,12.9-8.7,21.2-8.7H528.6c8,0,14.9,2.9,20.7,8.7c5.8,5.8,8.7,12.7,8.7,20.7v117.9L484.4,309h-73.7v145.7l3.3,3.3
		C414.1,458.1,412.9,459.2,410.8,461.3z"/>
	<path class="st1" d="M414.1,458.1l-3.3-3.3v6.5C412.9,459.2,414.1,458.1,414.1,458.1z"/>
	<polygon class="st1" points="732.2,605.1 805.8,605.1 820.5,634.5 864.7,546.2 879.4,516.7 820.5,546.2 761.6,546.2 702.7,487.3 
		776.4,487.3 791.1,516.7 835.3,428.4 850,398.9 820.5,428.4 702.7,428.4 761.6,369.5 805.8,369.5 805.8,398.9 850,310.6 
		732.2,310.6 617,425.7 617,489.9 	"/>
	<polygon class="st1" points="614.4,487.3 617,489.9 617,425.7 614.4,428.4 	"/>
	<polygon class="st1" points="1185.4,623.2 1156.2,564.7 953.4,564.7 924.2,623.2 909.6,652.4 968.1,623.2 1026.1,623.2 
		1026.1,950.4 1084.6,950.4 1084.6,623.2 1141.5,623.2 1200,652.4 	"/>
	<path class="st1" d="M648.7,770.6L793,914.9l144.3-144.3L793,626.3L648.7,770.6z M793,828.3l-57.7-57.7l57.7-57.7l57.7,57.7
		L793,828.3z"/>
	<path class="st1" d="M646.3,888V653.8c0-7.9,2.7-14.8,8.2-20.6c5.8-5.8,12.8-8.7,21-8.7H558.5c7.9,0,14.8,2.9,20.6,8.7
		c5.8,5.8,8.7,12.7,8.7,20.6v87.8h-87.8v-87.8c0-7.9,2.7-14.8,8.2-20.6c5.8-5.8,12.8-8.7,21-8.7H412.1c8.2,0,15.2,2.9,21,8.7
		c5.5,5.8,8.2,12.7,8.2,20.6V888c0,8.2-2.7,15.2-8.2,21c-5.8,5.5-12.8,8.2-21,8.2h117.1c-8.2,0-15.2-2.7-21-8.2
		c-5.5-5.8-8.2-12.8-8.2-21v-87.8h87.8V888c0,8.2-2.9,15.2-8.7,21c-5.8,5.5-12.7,8.2-20.6,8.2h117.1c-8.2,0-15.2-2.7-21-8.2
		C649,903.2,646.3,896.2,646.3,888z"/>
	<path class="st1" d="M411.1,682.7L353,624.6h-87.1l-58.1,58.1v29l130.7,130.7L324,856.9h-29c-8.2,0-15.1-2.7-20.9-8.2
		c-5.4-5.7-8.2-12.7-8.2-20.9v-29l-58.1,58.1l58.1,58.1H353l58.1-58.1v-29L280.4,697.2l14.5-14.5h29c7.9,0,14.7,2.9,20.4,8.6
		c5.7,5.7,8.6,12.6,8.6,20.4v29L411.1,682.7z"/>
</g>
</svg>
